<svg xmlns="http://www.w3.org/2000/svg" width="512" height="512" viewBox="0 0 512 512">
  <defs><linearGradient id="road" x1="0" y1="0" x2="1" y2="1"><stop offset="0" stop-color="#171126"/><stop offset=".5" stop-color="#372d63"/><stop offset="1" stop-color="#0b1024"/></linearGradient><filter id="glow" x="-50%" y="-50%" width="200%" height="200%"><feGaussianBlur stdDeviation="3" result="b"/><feMerge><feMergeNode in="b"/><feMergeNode in="SourceGraphic"/></feMerge></filter></defs>
  <rect width="512" height="512" fill="none"/>
  <g opacity=".16" stroke="#a98bff" stroke-width="1"><path d="M-24 118c78 24 130-14 214 12s138 44 246 8 154-18 196 8"/><path d="M-20 236c86-32 128-12 202 16s136 4 202-34 114-20 164 10"/><path d="M-18 386c92 22 148-24 238-12s132 66 216 28 118-18 158 18"/><path d="M114-34c38 78 18 144 52 216s88 110 64 186-8 116 36 178"/><path d="M332-30c-28 86 8 134 46 190s36 108-10 164-38 110 16 210"/></g>
  <g fill="none" stroke-linecap="round" stroke-linejoin="round"><path d="M-36 282c78-46 126-30 182-56s84-88 164-54 108 94 238 54" stroke="url(#road)" stroke-width="18"/><path d="M-36 282c78-46 126-30 182-56s84-88 164-54 108 94 238 54" stroke="#a98bff" stroke-width="2.2" opacity=".58" stroke-dasharray="10 15"/><path d="M238-34c42 78 20 134 50 190s96 86 76 166-84 100-36 224" stroke="url(#road)" stroke-width="15"/><path d="M238-34c42 78 20 134 50 190s96 86 76 166-84 100-36 224" stroke="#e9dbff" stroke-width="1.8" opacity=".42" stroke-dasharray="8 13"/><path d="M-28 98c72 30 116-4 176 24s106 30 172 2 118-18 220 22" stroke="url(#road)" stroke-width="12"/><path d="M-28 98c72 30 116-4 176 24s106 30 172 2 118-18 220 22" stroke="#7de8ff" stroke-width="1.5" opacity=".36" stroke-dasharray="7 11"/></g>
  <g opacity=".64" transform="rotate(-16 256 256)" fill="#181f42" stroke="#a98bff" stroke-opacity=".25" stroke-width="1.4"><rect x="42" y="90" width="54" height="38" rx="4"/><rect x="112" y="82" width="34" height="58" rx="3"/><rect x="160" y="104" width="66" height="32" rx="4"/><rect x="316" y="76" width="54" height="46" rx="4"/><rect x="386" y="96" width="70" height="34" rx="4"/><rect x="52" y="198" width="72" height="36" rx="4"/><rect x="142" y="214" width="42" height="66" rx="4"/><rect x="206" y="200" width="86" height="38" rx="4"/><rect x="312" y="214" width="60" height="50" rx="4"/><rect x="404" y="232" width="54" height="42" rx="4"/><rect x="74" y="348" width="62" height="42" rx="4"/><rect x="158" y="336" width="74" height="34" rx="4"/><rect x="256" y="354" width="48" height="70" rx="4"/><rect x="328" y="344" width="86" height="40" rx="4"/><rect x="424" y="374" width="52" height="46" rx="4"/></g>
  <g filter="url(#glow)" fill="#b48cff"><circle cx="74" cy="112" r="3.5"/><circle cx="178" cy="122" r="3"/><circle cx="346" cy="98" r="4"/><circle cx="86" cy="216" r="3.5"/><circle cx="226" cy="218" r="4"/><circle cx="344" cy="236" r="3.5"/><circle cx="110" cy="370" r="3.5"/><circle cx="282" cy="388" r="4"/><circle cx="374" cy="366" r="3.5"/><circle cx="446" cy="398" r="3"/></g>
  <g opacity=".25" fill="none" stroke="#7de8ff" stroke-width="1.4"><circle cx="118" cy="166" r="13"/><circle cx="402" cy="172" r="18"/><circle cx="72" cy="300" r="11"/><circle cx="454" cy="306" r="12"/></g>
</svg>
